<svg width="12" height="10" fill="none" xmlns="http://www.w3.org/2000/svg"><path d="m1.72 1 8.56 8M8.406 7.378C7.684 7.742 6.866 8 6 8 4.11 8 2.45 6.774 1.5 5.89c-.252-.234-.377-.35-.457-.58a1.145 1.145 0 0 1 0-.62c.08-.23.206-.346.457-.58a9.48 9.48 0 0 1 1.917-1.397m6.595 3.604c.178-.147.341-.29.487-.427l.002-.001c.25-.233.377-.35.456-.579a1.146 1.146 0 0 0 0-.62c-.08-.23-.206-.346-.457-.58C9.55 3.227 7.89 2 6 2c-.18 0-.36.011-.535.032M6.708 5.75A1.11 1.11 0 0 1 6 6c-.59 0-1.07-.448-1.07-1 0-.27.114-.514.3-.694" stroke="#fff" stroke-linecap="round" stroke-linejoin="round"/></svg>