<svg width="383" height="69" fill="none" xmlns="http://www.w3.org/2000/svg"><path d="M106.564 43.283a5.805 5.805 0 0 1-3.053-.562 6.21 6.21 0 0 1-2.28-1.948 5.809 5.809 0 0 1-1.032-2.928l-1.328-16.908c-.085-1.09.103-2.095.566-3.014a6.1 6.1 0 0 1 1.944-2.319 5.81 5.81 0 0 1 2.928-1.032l22.731-1.785.488 6.22-21.135 1.66c-.425.034-.749.166-.972.398-.196.229-.276.57-.241 1.022l1.071 13.638c.034.425.166.749.398.971.256.194.596.275 1.022.241l21.135-1.66.488 6.221-22.73 1.785ZM155.743 39.422l-9.114-9.275 8.095-.636 7.234 7.296.166 2.113-6.381.502Zm-22.291 1.75L131.2 12.5l22.77-1.788c1.09-.085 2.095.103 3.014.566a5.98 5.98 0 0 1 2.322 1.984c.63.86.986 1.822 1.07 2.885l.582 7.418a5.526 5.526 0 0 1-.606 3.016 5.985 5.985 0 0 1-1.984 2.323c-.836.6-1.798.943-2.888 1.029l-16.586 1.343.739 9.41-6.181.486Zm4.95-16.157 16.27-1.278-.535-6.819-16.27 1.278.535 6.819ZM166.438 38.582 164.184 9.87l26.518-2.082.488 6.22-20.257 1.591.394 5.025 16.31-1.281.489 6.22-16.31 1.282.394 5.024 20.258-1.59.489 6.22-26.519 2.083ZM196.969 36.184l-1.791-22.81c-.086-1.09.103-2.094.566-3.013a5.993 5.993 0 0 1 1.984-2.323 5.734 5.734 0 0 1 2.888-1.029l16.869-1.324c1.089-.086 2.094.103 3.013.565a5.991 5.991 0 0 1 2.323 1.985c.627.833.983 1.795 1.069 2.885l1.791 22.81-6.261.491-.726-9.251-16.27 1.277.726 9.252-6.181.485Zm4.966-15.958 16.27-1.277-.551-7.019-16.27 1.278.551 7.018ZM240.034 32.802l-1.766-22.49-11.245.883-.489-6.221 28.712-2.255.488 6.221-11.245.883 1.766 22.49-6.221.49ZM260.563 31.19 258.308 2.48 284.826.396l.489 6.221-20.258 1.591.395 5.025 16.309-1.281.489 6.22-16.31 1.281.395 5.025 20.257-1.59.489 6.22-26.518 2.082Z" fill="#fff"/><path d="M13.827 69V58.24L.507 40.2h7.4l9.04 11.36 9-11.36h7.48l-13.36 18.08V69h-6.24ZM41.174 69a5.735 5.735 0 0 1-2.96-.8 5.99 5.99 0 0 1-2.16-2.16 5.734 5.734 0 0 1-.8-2.96V46.12c0-1.093.266-2.08.8-2.96a5.99 5.99 0 0 1 2.16-2.16 5.734 5.734 0 0 1 2.96-.8h16.96c1.066 0 2.04.267 2.92.8a5.99 5.99 0 0 1 2.16 2.16c.56.88.84 1.867.84 2.96v16.96c0 1.067-.28 2.053-.84 2.96a5.992 5.992 0 0 1-2.16 2.16c-.88.533-1.854.8-2.92.8h-16.96Zm.28-6.24h16.32V46.44h-16.32v16.32ZM74.299 69a5.735 5.735 0 0 1-2.96-.8 5.99 5.99 0 0 1-2.16-2.16 5.734 5.734 0 0 1-.8-2.96V40.2h6.2v22.56h16.32V40.2h6.28v22.88c0 1.067-.28 2.053-.84 2.96a5.992 5.992 0 0 1-2.16 2.16c-.88.533-1.854.8-2.92.8h-16.96ZM123.944 69l-8.36-9.96h8.12l6.64 7.84V69h-6.4Zm-22.36 0V40.24h22.84c1.093 0 2.08.267 2.96.8a6.001 6.001 0 0 1 2.16 2.16c.56.907.84 1.893.84 2.96v7.44c0 1.067-.28 2.053-.84 2.96a6.002 6.002 0 0 1-2.16 2.16c-.88.533-1.867.8-2.96.8l-16.64.04V69h-6.2Zm6.2-15.72h16.32v-6.84h-16.32v6.84ZM147.562 69V46.12c0-1.093.267-2.08.8-2.96a6 6 0 0 1 2.16-2.16 5.737 5.737 0 0 1 2.96-.8h16.92c1.094 0 2.08.267 2.96.8a5.985 5.985 0 0 1 2.16 2.16c.56.88.84 1.867.84 2.96V69h-6.28v-9.28h-16.32V69h-6.2Zm6.2-15.52h16.32v-7.04h-16.32v7.04ZM186.84 69a5.805 5.805 0 0 1-3-.8 6.202 6.202 0 0 1-2.12-2.12 5.802 5.802 0 0 1-.8-3V46.12c0-1.093.266-2.08.8-2.96a6.092 6.092 0 0 1 2.12-2.16 5.804 5.804 0 0 1 3-.8h22.8v6.24h-21.2c-.427 0-.76.107-1 .32-.214.213-.32.547-.32 1v13.68c0 .427.106.76.32 1 .24.213.573.32 1 .32h21.2V69h-22.8ZM219.73 69a5.81 5.81 0 0 1-3-.8 6.21 6.21 0 0 1-2.12-2.12 5.812 5.812 0 0 1-.8-3V46.12c0-1.093.267-2.08.8-2.96a6.1 6.1 0 0 1 2.12-2.16 5.81 5.81 0 0 1 3-.8h22.8v6.24h-21.2c-.426 0-.76.107-1 .32-.213.213-.32.547-.32 1v13.68c0 .427.107.76.32 1 .24.213.574.32 1 .32h21.2V69h-22.8ZM252.541 69a5.735 5.735 0 0 1-2.96-.8 5.986 5.986 0 0 1-2.16-2.16 5.738 5.738 0 0 1-.8-2.96V46.12c0-1.093.267-2.08.8-2.96a5.985 5.985 0 0 1 2.16-2.16 5.734 5.734 0 0 1 2.96-.8h16.96c1.067 0 2.04.267 2.92.8a5.985 5.985 0 0 1 2.16 2.16c.56.88.84 1.867.84 2.96v16.96c0 1.067-.28 2.053-.84 2.96a5.986 5.986 0 0 1-2.16 2.16c-.88.533-1.853.8-2.92.8h-16.96Zm.28-6.24h16.32V46.44h-16.32v16.32ZM285.666 69a5.735 5.735 0 0 1-2.96-.8 5.986 5.986 0 0 1-2.16-2.16 5.738 5.738 0 0 1-.8-2.96V40.2h6.2v22.56h16.32V40.2h6.28v22.88c0 1.067-.28 2.053-.84 2.96a5.986 5.986 0 0 1-2.16 2.16c-.88.533-1.853.8-2.92.8h-16.96ZM312.951 69V40.2h6.4l16.12 19.2V40.2h6.28V69h-6.4l-16.2-19.28V69h-6.2ZM356.072 69V46.44h-11.28V40.2h28.8v6.24h-11.28V69h-6.24ZM376.664 60.96V40.2h6.12v20.76h-6.12Zm0 8.04v-6.12h6.12V69h-6.12Z" fill="#00E3A5"/></svg>