<svg width="383" height="71" fill="none" xmlns="http://www.w3.org/2000/svg"><path d="m81.932 47.218-2.258-28.751 6.181-.486 1.77 22.53 22.53-1.768.488 6.22-28.711 2.255ZM118.79 44.324a5.732 5.732 0 0 1-3.013-.566 5.992 5.992 0 0 1-2.323-1.984 5.736 5.736 0 0 1-1.029-2.889l-1.328-16.908c-.085-1.09.103-2.094.566-3.013a5.992 5.992 0 0 1 1.984-2.323 5.734 5.734 0 0 1 2.889-1.029l16.908-1.328a5.524 5.524 0 0 1 2.973.57 5.992 5.992 0 0 1 2.323 1.984c.627.833.983 1.795 1.069 2.885l1.328 16.908a5.535 5.535 0 0 1-.606 3.016 5.992 5.992 0 0 1-1.984 2.323c-.836.6-1.785.943-2.849 1.026l-16.908 1.328Zm-.209-6.243 16.27-1.278-1.278-16.27-16.27 1.278 1.278 16.27ZM151.893 41.724a5.732 5.732 0 0 1-3.013-.566 5.99 5.99 0 0 1-2.323-1.984 5.745 5.745 0 0 1-1.029-2.888L144.2 19.378c-.085-1.09.103-2.095.566-3.014a5.993 5.993 0 0 1 1.984-2.322 5.738 5.738 0 0 1 2.889-1.03l16.868-1.324c1.09-.086 2.094.103 3.013.566a5.991 5.991 0 0 1 2.323 1.984c.627.834.983 1.795 1.069 2.885l.213 2.712-6.261.492-.188-2.393-16.27 1.278 1.278 16.27 16.27-1.278-.338-4.307-6.221.489-.489-6.221 12.482-.98.852 10.846a5.535 5.535 0 0 1-.606 3.017 5.993 5.993 0 0 1-1.984 2.322c-.836.601-1.799.944-2.889 1.03l-16.868 1.324ZM190.947 38.657l-2.255-28.711 6.101-.48 2.255 28.712-6.101.48ZM200.472 37.91l-2.254-28.712 6.38-.501 17.574 17.879-1.504-19.141 6.261-.492 2.255 28.712-6.381.5-17.659-17.952 1.509 19.221-6.181.486ZM256.312 33.525l-1.766-22.491-11.245.883-.489-6.22 28.712-2.256.488 6.221-11.245.883 1.766 22.491-6.221.489ZM282.583 31.462a5.736 5.736 0 0 1-3.014-.566 5.996 5.996 0 0 1-2.322-1.984 5.726 5.726 0 0 1-1.029-2.889L274.89 9.115c-.086-1.09.103-2.094.566-3.013a5.985 5.985 0 0 1 1.984-2.323 5.734 5.734 0 0 1 2.888-1.029l16.908-1.328a5.526 5.526 0 0 1 2.974.57 5.981 5.981 0 0 1 2.322 1.984c.628.833.984 1.795 1.069 2.885l1.328 16.908a5.525 5.525 0 0 1-.605 3.016 5.995 5.995 0 0 1-1.985 2.323c-.835.6-1.785.942-2.848 1.026l-16.908 1.328Zm-.209-6.243 16.269-1.278-1.277-16.27-16.27 1.278 1.278 16.27Z" fill="#fff"/><path d="M13.827 71V60.24L.507 42.2h7.4l9.04 11.36 9-11.36h7.48l-13.36 18.08V71h-6.24ZM41.174 71a5.735 5.735 0 0 1-2.96-.8 5.99 5.99 0 0 1-2.16-2.16 5.735 5.735 0 0 1-.8-2.96V48.12c0-1.093.266-2.08.8-2.96a5.99 5.99 0 0 1 2.16-2.16 5.735 5.735 0 0 1 2.96-.8h16.96c1.066 0 2.04.267 2.92.8a5.99 5.99 0 0 1 2.16 2.16c.56.88.84 1.867.84 2.96v16.96c0 1.067-.28 2.053-.84 2.96a5.99 5.99 0 0 1-2.16 2.16c-.88.534-1.854.8-2.92.8h-16.96Zm.28-6.24h16.32V48.44h-16.32v16.32ZM74.299 71a5.735 5.735 0 0 1-2.96-.8 5.99 5.99 0 0 1-2.16-2.16 5.735 5.735 0 0 1-.8-2.96V42.2h6.2v22.56h16.32V42.2h6.28v22.88c0 1.067-.28 2.053-.84 2.96a5.99 5.99 0 0 1-2.16 2.16c-.88.534-1.854.8-2.92.8h-16.96ZM123.944 71l-8.36-9.96h8.12l6.64 7.84V71h-6.4Zm-22.36 0V42.24h22.84c1.093 0 2.08.267 2.96.8a6 6 0 0 1 2.16 2.16c.56.907.84 1.893.84 2.96v7.44c0 1.067-.28 2.053-.84 2.96a6 6 0 0 1-2.16 2.16c-.88.534-1.867.8-2.96.8l-16.64.04V71h-6.2Zm6.2-15.72h16.32v-6.84h-16.32v6.84ZM147.562 71V48.12c0-1.093.267-2.08.8-2.96a5.985 5.985 0 0 1 2.16-2.16 5.735 5.735 0 0 1 2.96-.8h16.92c1.093 0 2.08.267 2.96.8a5.985 5.985 0 0 1 2.16 2.16c.56.88.84 1.867.84 2.96V71h-6.28v-9.28h-16.32V71h-6.2Zm6.2-15.52h16.32v-7.04h-16.32v7.04ZM186.84 71a5.805 5.805 0 0 1-3-.8 6.2 6.2 0 0 1-2.12-2.12 5.802 5.802 0 0 1-.8-3V48.12c0-1.093.266-2.08.8-2.96a6.092 6.092 0 0 1 2.12-2.16 5.805 5.805 0 0 1 3-.8h22.8v6.24h-21.2c-.427 0-.76.107-1 .32-.214.214-.32.547-.32 1v13.68c0 .427.106.76.32 1 .24.213.573.32 1 .32h21.2V71h-22.8ZM219.73 71a5.81 5.81 0 0 1-3-.8 6.209 6.209 0 0 1-2.12-2.12 5.812 5.812 0 0 1-.8-3V48.12c0-1.093.267-2.08.8-2.96a6.1 6.1 0 0 1 2.12-2.16 5.81 5.81 0 0 1 3-.8h22.8v6.24h-21.2c-.426 0-.76.107-1 .32-.213.214-.32.547-.32 1v13.68c0 .427.107.76.32 1 .24.213.574.32 1 .32h21.2V71h-22.8ZM252.541 71a5.732 5.732 0 0 1-2.96-.8 5.985 5.985 0 0 1-2.16-2.16 5.728 5.728 0 0 1-.8-2.96V48.12c0-1.093.266-2.08.8-2.96a5.985 5.985 0 0 1 2.16-2.16 5.732 5.732 0 0 1 2.96-.8h16.96c1.067 0 2.04.267 2.92.8a5.992 5.992 0 0 1 2.16 2.16c.56.88.84 1.867.84 2.96v16.96c0 1.067-.28 2.053-.84 2.96a5.992 5.992 0 0 1-2.16 2.16c-.88.534-1.853.8-2.92.8h-16.96Zm.28-6.24h16.32V48.44h-16.32v16.32ZM285.666 71a5.732 5.732 0 0 1-2.96-.8 5.985 5.985 0 0 1-2.16-2.16 5.738 5.738 0 0 1-.8-2.96V42.2h6.2v22.56h16.32V42.2h6.28v22.88c0 1.067-.28 2.053-.84 2.96a5.992 5.992 0 0 1-2.16 2.16c-.88.534-1.853.8-2.92.8h-16.96ZM312.951 71V42.2h6.4l16.12 19.2V42.2h6.28V71h-6.4l-16.2-19.28V71h-6.2ZM356.072 71V48.44h-11.28V42.2h28.8v6.24h-11.28V71h-6.24ZM376.664 62.96V42.2h6.12v20.76h-6.12Zm0 8.04v-6.12h6.12V71h-6.12Z" fill="#00E3A5"/></svg>