<svg width="36" height="36" fill="none" xmlns="http://www.w3.org/2000/svg"><path d="M32.222 23.792a.528.528 0 1 1 0 1.056.528.528 0 0 1 0-1.056ZM32.222 27.544a.528.528 0 1 1 0 1.056.528.528 0 0 1 0-1.056ZM32.222 31.085a.528.528 0 1 1 0 1.056.528.528 0 0 1 0-1.056Z" fill="#00E3A5"/><path d="M36 36H0V0h36v36ZM.44 34.687h35.12V1.315H.44v33.372Z" fill="#00E3A5"/><path d="m8.055 28.8-3.719 3.719h-.762v-.547L6.746 28.8h1.309ZM5.45 28.8l-1.876 1.877v-1.31l.568-.567H5.45ZM10.668 28.8l-3.72 3.719H5.64L9.36 28.8h1.308ZM13.264 28.8l-3.72 3.719H8.235l3.72-3.719h1.31ZM15.877 28.8l-3.719 3.719H10.85l3.718-3.719h1.31ZM18.5 28.8l-3.719 3.719h-1.309l3.719-3.719H18.5ZM21.113 28.8l-3.72 3.719h-1.308l3.719-3.719h1.309ZM23.708 28.8l-3.719 3.719H18.68L22.4 28.8h1.308ZM25.756 28.8v.567l-3.153 3.152h-1.31l3.72-3.719h.742ZM25.756 30.662v1.309l-.549.548H23.9l1.857-1.857ZM32.485 14.539h-.528V4.129H21.6V3.6h10.885V14.54ZM15.12 3.6H3.6v.72h11.52V3.6ZM4.6 15.484H2.834v1.765H4.6v-1.765ZM4.6 11.61H2.834v1.766H4.6V11.61Z" fill="#00E3A5"/><path d="M18 19.875 19.875 18m0 0L18 16.125M19.875 18H13m3.125-2.97V15c0-.7 0-1.05.136-1.318a1.25 1.25 0 0 1 .546-.546c.268-.136.618-.136 1.318-.136H21c.7 0 1.05 0 1.317.136.235.12.427.311.547.546.136.268.136.617.136 1.316v6.004c0 .699 0 1.048-.136 1.315-.12.236-.312.427-.547.547-.267.136-.616.136-1.315.136h-2.879c-.699 0-1.049 0-1.316-.136a1.251 1.251 0 0 1-.546-.547c-.136-.267-.136-.617-.136-1.317v-.031" stroke="#fff" stroke-linecap="round" stroke-linejoin="round"/></svg>