<svg width="12" height="8" fill="none" xmlns="http://www.w3.org/2000/svg"><path d="M1.5 4.89C2.45 5.773 4.11 7 6 7c1.889 0 3.548-1.226 4.5-2.11.251-.234.377-.35.457-.58a1.144 1.144 0 0 0 0-.62c-.08-.23-.206-.346-.457-.58C9.548 2.227 7.89 1 6 1 4.111 1 2.451 2.226 1.5 3.11c-.252.234-.377.35-.457.58a1.145 1.145 0 0 0 0 .62c.08.23.205.346.457.58Z" stroke="#fff" stroke-linecap="round" stroke-linejoin="round"/><path d="M4.93 4c0 .552.48 1 1.07 1 .59 0 1.07-.448 1.07-1S6.59 3 6 3c-.59 0-1.07.448-1.07 1Z" stroke="#fff" stroke-linecap="round" stroke-linejoin="round"/></svg>