<svg xmlns="http://www.w3.org/2000/svg" width="1236" height="261" fill="none"><g filter="url(#a)"><rect width="1175" height="200" x="30" y="30" fill="url(#b)" rx="15"/><rect width="1174" height="199" x="30.5" y="30.5" stroke="url(#c)" rx="14.5"/></g><path fill="#fff" d="M50 50h10v.97h-9.03V60H50V50Z"/><g fill="#00E3A5" filter="url(#d)"><path d="m125.203 207.253 65.883-.09-.009-4.031-34.297-.012.006-.006-10.627-9.096-7.796-.115h-.003l-22.606-.141.027 4.465 9.422 9.023v.003Zm20.437-11.863 9.03 7.727h-5.783l-8.92-7.812 5.673.085Zm-7.802-.115 10.531 9.22 41.334.015v1.272l-63.943.087-8.598-8.236-.015-2.484 20.691.126Z"/><path d="M127.527 203.647a.691.691 0 1 0 0-1.382.691.691 0 0 0 0 1.382ZM132.221 203.647a.69.69 0 1 0 .001-1.38.69.69 0 0 0-.001 1.38ZM136.915 203.638a.69.69 0 1 0 .001-1.38.69.69 0 0 0-.001 1.38ZM141.625 203.66a.69.69 0 1 0 0-1.38.69.69 0 0 0 0 1.38ZM73.633 200.397 83.016 191l-23.555.006L50 200.53v9.566l42.365-.163h33.016l-9.473-9.53-42.275-.006Z"/><path d="m83.679 199.071 8.07-8.071h-6.662l-8.07 8.071h6.662ZM90.987 199.071l8.07-8.071h-6.544l-8.071 8.071h6.545ZM98.298 199.071 106.37 191h-6.548l-8.071 8.071h6.548ZM105.606 199.071l8.071-8.071h-6.545l-8.074 8.071h6.548ZM137.874 191.027h-22.093v1.381h22.093v-1.381ZM191.089 208.553h-61.213v1.381h61.213v-1.381Z"/></g><g fill="#00E3A5" filter="url(#e)"><path d="m1109.89 52.843-65.89.09.01 4.031 34.3.012-.01.006 10.63 9.096 7.8.115 22.61.142-.03-4.465-9.42-9.024v-.003Zm-20.44 11.863-9.03-7.727h5.78l8.92 7.812-5.67-.085Zm7.8.115-10.53-9.22-41.33-.014v-1.273l63.94-.087 8.6 8.236.01 2.485-20.69-.127Z"/><path d="M1107.56 56.449a.69.69 0 1 0 .002 1.382.69.69 0 0 0-.002-1.382ZM1102.87 56.449a.69.69 0 1 0 0 1.38.69.69 0 0 0 0-1.38ZM1098.17 56.458a.69.69 0 1 0 0 1.38c.39 0 .69-.307.69-.69 0-.383-.3-.69-.69-.69ZM1093.46 56.437a.69.69 0 1 0 0 1.38c.39 0 .7-.307.7-.69 0-.383-.31-.69-.7-.69ZM1161.46 59.699l-9.39 9.397 23.56-.006 9.46-9.524V50l-42.37.163h-33.01l9.47 9.53 42.28.006Z"/><path d="m1151.41 61.025-8.07 8.07h6.66l8.07-8.07h-6.66ZM1144.1 61.025l-8.07 8.07h6.55l8.07-8.07h-6.55ZM1136.79 61.025l-8.07 8.07h6.55l8.07-8.07h-6.55ZM1129.48 61.025l-8.07 8.07h6.55l8.07-8.07h-6.55ZM1097.22 69.07h22.09v-1.382h-22.09v1.381ZM1044 51.544h61.21v-1.381H1044v1.38Z"/></g><path fill="#fff" d="M1185 210h-10v-.97h9.03V200h.97v10Z"/><defs><filter id="a" width="1275" height="300" x="-20" y="-20" color-interpolation-filters="sRGB" filterUnits="userSpaceOnUse"><feFlood flood-opacity="0" result="BackgroundImageFix"/><feGaussianBlur in="BackgroundImageFix" stdDeviation="25"/><feComposite in2="SourceAlpha" operator="in" result="effect1_backgroundBlur_78_10"/><feBlend in="SourceGraphic" in2="effect1_backgroundBlur_78_10" result="shape"/></filter><filter id="d" width="241.089" height="119.096" x="0" y="141" color-interpolation-filters="sRGB" filterUnits="userSpaceOnUse"><feFlood flood-opacity="0" result="BackgroundImageFix"/><feColorMatrix in="SourceAlpha" result="hardAlpha" values="0 0 0 0 0 0 0 0 0 0 0 0 0 0 0 0 0 0 127 0"/><feOffset/><feGaussianBlur stdDeviation="25"/><feComposite in2="hardAlpha" operator="out"/><feColorMatrix values="0 0 0 0 0 0 0 0 0 0.890196 0 0 0 0 0.647059 0 0 0 1 0"/><feBlend in2="BackgroundImageFix" result="effect1_dropShadow_78_10"/><feBlend in="SourceGraphic" in2="effect1_dropShadow_78_10" result="shape"/></filter><filter id="e" width="241.089" height="119.096" x="994" y="0" color-interpolation-filters="sRGB" filterUnits="userSpaceOnUse"><feFlood flood-opacity="0" result="BackgroundImageFix"/><feColorMatrix in="SourceAlpha" result="hardAlpha" values="0 0 0 0 0 0 0 0 0 0 0 0 0 0 0 0 0 0 127 0"/><feOffset/><feGaussianBlur stdDeviation="25"/><feComposite in2="hardAlpha" operator="out"/><feColorMatrix values="0 0 0 0 0 0 0 0 0 0.890196 0 0 0 0 0.647059 0 0 0 1 0"/><feBlend in2="BackgroundImageFix" result="effect1_dropShadow_78_10"/><feBlend in="SourceGraphic" in2="effect1_dropShadow_78_10" result="shape"/></filter><linearGradient id="b" x1="617.5" x2="617.5" y1="-30.571" y2="319.835" gradientUnits="userSpaceOnUse"><stop stop-color="#fff" stop-opacity=".03"/><stop offset="1" stop-color="#fff" stop-opacity="0"/></linearGradient><linearGradient id="c" x1="1330.74" x2="1198.64" y1="230" y2="-309.074" gradientUnits="userSpaceOnUse"><stop stop-color="#F5FBF2" stop-opacity=".44"/><stop offset="1" stop-color="#F5FBF2" stop-opacity="0"/></linearGradient></defs></svg>