<svg width="70" height="70" viewBox="0 0 70 70" fill="none" xmlns="http://www.w3.org/2000/svg">
<path d="M66.5424 23.4891L69.9556 23.4823L69.9214 0.0272408L46.5073 0.0272387L46.5073 3.44037L66.5151 3.44038L66.5424 23.4891Z" fill="#161628"/>
<path d="M3.45741 3.44049L23.7246 3.4405L23.7246 0.0273609L0.0442792 0.0273588L0.0442772 23.4858L3.45741 23.4858L3.45741 3.44049Z" fill="#161628"/>
<path d="M3.4572 46.3673L0.044058 46.3673L0.0440559 69.9965L23.5708 69.9965L23.5708 66.5833L3.45719 66.5833L3.4572 46.3673Z" fill="#161628"/>
<path d="M69.9556 46.3707L66.5424 46.3639L66.5151 66.5833L46.4322 66.5833L46.4322 69.9965L69.9214 69.9965L69.9556 46.3707Z" fill="#161628"/>
<path d="M35.0014 66.5869C34.0589 66.5869 33.2949 67.3509 33.2949 68.2934C33.2949 69.2359 34.0589 70 35.0014 70C35.944 70 36.708 69.2359 36.708 68.2934C36.708 67.3509 35.944 66.5869 35.0014 66.5869Z" fill="#161628"/>
<path d="M35.0014 -5.06939e-05C34.0589 -5.07763e-05 33.2949 0.764006 33.2949 1.70652C33.2949 2.64903 34.0589 3.41309 35.0014 3.41309C35.944 3.41309 36.708 2.64903 36.708 1.70652C36.708 0.764006 35.944 -5.06115e-05 35.0014 -5.06939e-05Z" fill="#161628"/>
<path d="M1.70652 36.7047C2.64854 36.7047 3.41309 35.9402 3.41309 34.9981C3.41309 34.0561 2.64854 33.2916 1.70652 33.2916C0.764492 33.2916 -5.03132e-05 34.0561 -5.03955e-05 34.9981C-5.04779e-05 35.9402 0.764492 36.7047 1.70652 36.7047Z" fill="#161628"/>
<path d="M68.2934 33.2951C67.3514 33.2951 66.5869 34.0597 66.5869 35.0017C66.5869 35.9437 67.3514 36.7083 68.2934 36.7083C69.2355 36.7083 70 35.9437 70 35.0017C70 34.0597 69.2355 33.2951 68.2934 33.2951Z" fill="#161628"/>
<rect x="63" y="63.0001" width="56" height="56" transform="rotate(-180 63 63.0001)" fill="#161628"/>
<path d="M25.2374 34.4575C30.0692 32.3406 33.2912 30.9451 34.9033 30.2708C39.5063 28.3457 40.4627 28.0113 41.0861 28.0001C41.2232 27.9978 41.5298 28.032 41.7284 28.194C41.8961 28.3308 41.9422 28.5156 41.9643 28.6453C41.9864 28.7751 42.0139 29.0706 41.992 29.3015C41.7426 31.9368 40.6633 38.3322 40.1142 41.2839C39.8818 42.5328 39.4244 42.9516 38.9815 42.9926C38.0189 43.0816 37.288 42.3529 36.3558 41.7385C34.897 40.7769 34.0729 40.1783 32.6569 39.24C31.0205 38.1557 32.0813 37.5597 33.0139 36.5857C33.258 36.3308 37.4988 32.452 37.5809 32.1001C37.5912 32.0561 37.6007 31.892 37.5038 31.8054C37.4069 31.7188 37.2639 31.7484 37.1606 31.772C37.0143 31.8054 34.6839 33.3542 30.1694 36.4186C29.5079 36.8753 28.9087 37.0979 28.3719 37.0862C27.7801 37.0734 26.6417 36.7497 25.7955 36.4731C24.7575 36.1338 23.9325 35.9545 24.0044 35.3783C24.0418 35.0781 24.4528 34.7712 25.2374 34.4575Z" fill="#00E3A5"/>
</svg>
