<svg width="70" height="70" viewBox="0 0 70 70" fill="none" xmlns="http://www.w3.org/2000/svg">
<path d="M66.5424 23.4891L69.9556 23.4823L69.9214 0.0272408L46.5073 0.0272387L46.5073 3.44037L66.5151 3.44038L66.5424 23.4891Z" fill="#00E3A5"/>
<path d="M3.45741 3.44049L23.7246 3.4405L23.7246 0.0273609L0.0442792 0.0273588L0.0442772 23.4858L3.45741 23.4858L3.45741 3.44049Z" fill="#00E3A5"/>
<path d="M3.4572 46.3673L0.044058 46.3673L0.0440559 69.9965L23.5708 69.9965L23.5708 66.5833L3.45719 66.5833L3.4572 46.3673Z" fill="#00E3A5"/>
<path d="M69.9556 46.3707L66.5424 46.3639L66.5151 66.5833L46.4322 66.5833L46.4322 69.9965L69.9214 69.9965L69.9556 46.3707Z" fill="#00E3A5"/>
<path d="M35.0014 66.5869C34.0589 66.5869 33.2949 67.3509 33.2949 68.2934C33.2949 69.2359 34.0589 70 35.0014 70C35.944 70 36.708 69.2359 36.708 68.2934C36.708 67.3509 35.944 66.5869 35.0014 66.5869Z" fill="#00E3A5"/>
<path d="M35.0014 -5.06939e-05C34.0589 -5.07763e-05 33.2949 0.764006 33.2949 1.70652C33.2949 2.64903 34.0589 3.41309 35.0014 3.41309C35.944 3.41309 36.708 2.64903 36.708 1.70652C36.708 0.764006 35.944 -5.06115e-05 35.0014 -5.06939e-05Z" fill="#00E3A5"/>
<path d="M1.70652 36.7047C2.64854 36.7047 3.41309 35.9402 3.41309 34.9981C3.41309 34.0561 2.64854 33.2916 1.70652 33.2916C0.764492 33.2916 -5.03132e-05 34.0561 -5.03955e-05 34.9981C-5.04779e-05 35.9402 0.764492 36.7047 1.70652 36.7047Z" fill="#00E3A5"/>
<path d="M68.2934 33.2951C67.3514 33.2951 66.5869 34.0597 66.5869 35.0017C66.5869 35.9437 67.3514 36.7083 68.2934 36.7083C69.2355 36.7083 70 35.9437 70 35.0017C70 34.0597 69.2355 33.2951 68.2934 33.2951Z" fill="#00E3A5"/>
<rect x="63" y="63.0001" width="56" height="56" transform="rotate(-180 63 63.0001)" fill="#00E3A5"/>
<path d="M39 33H43C43.5523 33 44 33.4477 44 34V45L40.667 42.231C40.4875 42.0818 40.2608 42 40.0273 42H32C31.4477 42 31 41.5523 31 41V38M39 33V30C39 29.4477 38.5523 29 38 29H27C26.4477 29 26 29.4477 26 30V41.0003L29.333 38.2308C29.5125 38.0817 29.7392 38 29.9727 38H31M39 33V37C39 37.5523 38.5523 38 38 38H31" stroke="#161628" stroke-width="2" stroke-linecap="round" stroke-linejoin="round"/>
</svg>
