<svg width="576" height="603" viewBox="0 0 576 603" fill="none" xmlns="http://www.w3.org/2000/svg">
<path d="M215.569 415.075C215.569 413.933 216.023 412.837 216.831 412.03C217.638 411.222 218.734 410.768 219.876 410.768H233.182L568.249 406.461C573.416 406.461 576 408.529 576 412.62C576 435.591 556.737 466.315 518.211 504.792C484.364 538.675 454.536 561.919 428.727 574.524C389.033 593.54 345.533 603.275 301.522 602.994C220.622 602.994 150.129 573.289 90.0431 513.88C61.7631 485.997 39.2702 452.799 23.8565 416.195C8.17634 379.987 0.0581639 340.956 0 301.497C0 219.117 29.799 147.676 89.3971 87.1757C146.67 29.0586 217.378 0 301.522 0C376.163 0 436.909 21.5355 483.761 64.6065L484.105 64.9511L486.129 67.2769L489.23 71.3256L490.091 73.2638C490.408 73.904 490.542 74.6195 490.478 75.3312C490.307 76.4861 489.726 77.5408 488.842 78.3031C488.178 78.8255 487.374 79.1408 486.532 79.2097C485.69 79.2786 484.846 79.0982 484.105 78.6907L482.469 77.7862L481.478 77.1402L479.239 75.5466C443.785 50.3644 414.014 33.581 389.928 25.1965C361.407 15.6229 331.474 10.9341 301.392 11.3277C231.632 11.3277 170.569 32.8632 118.206 75.9342C85.0307 103.391 58.427 137.933 40.3493 177.022C21.5981 215.846 11.7835 258.38 11.6268 301.497C11.6268 380.432 40.1483 448.527 97.1914 505.783C154.234 563.039 222.301 591.652 301.392 591.623C357.216 592.46 411.934 576.018 458.053 544.547L459.388 543.642C514.852 505.395 486.344 417.918 418.952 417.918L220.306 419.425H219.66C218.548 419.37 217.501 418.886 216.739 418.075C215.976 417.264 215.557 416.189 215.569 415.075Z" fill="white" fill-opacity="0.2"/>
</svg>
