<svg width="155" height="140" viewBox="0 0 155 140" fill="none" xmlns="http://www.w3.org/2000/svg">
<g clip-path="url(#clip0_1_81)">
<path d="M10.8353 71.74H1.00527C0.762621 71.7424 0.527378 71.6564 0.343393 71.4982C0.159408 71.34 0.0392356 71.1203 0.00527431 70.88C-0.00785979 70.785 0.00363446 70.6882 0.0386552 70.5989C0.0736759 70.5096 0.131049 70.4307 0.205274 70.37L1.00527 70.19H10.8153V16.11C10.8153 15.4433 11.4819 15.11 12.8153 15.11H73.3953C74.0619 15.11 74.3953 15.42 74.3953 16.04C74.4014 16.1422 74.3818 16.2443 74.3381 16.337C74.2944 16.4296 74.2281 16.5097 74.1453 16.57L73.3753 16.74H12.8153V70.19H75.1753C75.8553 70.19 76.1753 70.48 76.1753 71.05C76.1797 71.1506 76.1593 71.2507 76.1156 71.3414C76.072 71.4321 76.0066 71.5107 75.9253 71.57L75.1553 71.74H12.8153V95.74C12.8153 96.35 12.4553 96.66 11.7453 96.66C11.6108 96.6688 11.4759 96.6502 11.3487 96.6056C11.2216 96.5609 11.1047 96.491 11.0053 96.4L10.8053 95.74L10.8353 71.74Z" fill="white"/>
<path d="M85.1052 71.74L71.8152 97.09C71.6986 97.1081 71.5793 97.0988 71.4669 97.0628C71.3545 97.0268 71.252 96.9651 71.1676 96.8826C71.0832 96.8001 71.0191 96.6991 70.9805 96.5876C70.9419 96.476 70.9298 96.357 70.9452 96.24V96L71.0152 95.86L83.3552 71.74H75.0052C74.5252 71.74 74.2352 71.45 74.1152 70.87C74.1015 70.7768 74.1107 70.6816 74.1421 70.5927C74.1735 70.5039 74.226 70.424 74.2952 70.36L75.0052 70.18H84.1152L112.315 15C112.485 14.53 112.725 14.28 113.025 14.25C113.267 14.2577 113.502 14.3367 113.7 14.4773C113.897 14.6178 114.049 14.8136 114.135 15.04L114.215 15.23L154.475 95.36C154.475 95.92 154.705 97.06 154.115 97.11L153.755 97L153.445 96.63L140.815 71.74H85.1052ZM85.9452 70.18H139.945L113.105 16.75L85.9452 70.18Z" fill="white"/>
<path d="M70.8453 96.37C70.8453 96.1048 70.9506 95.8504 71.1382 95.6629C71.3257 95.4754 71.5801 95.37 71.8453 95.37H74.9353L152.745 94.37C153.945 94.37 154.545 94.85 154.545 95.8C154.545 101.133 150.072 108.267 141.125 117.2C133.265 125.067 126.339 130.463 120.345 133.39C111.127 137.805 101.026 140.065 90.8053 140C72.0186 140 55.6486 133.103 41.6953 119.31C35.1281 112.836 29.9047 105.129 26.3253 96.63C22.684 88.2233 20.7988 79.1614 20.7853 70C20.7853 50.8733 27.7053 34.2867 41.5453 20.24C54.8453 6.74667 71.2653 0 90.8053 0C108.139 0 122.245 5 133.125 15L133.205 15.08L133.675 15.62L134.395 16.56L134.595 17.01C134.669 17.1586 134.7 17.3248 134.685 17.49C134.645 17.7581 134.511 18.003 134.305 18.18C134.151 18.3013 133.964 18.3745 133.769 18.3905C133.573 18.4065 133.377 18.3646 133.205 18.27L132.825 18.06L132.595 17.91L132.075 17.54C123.842 11.6933 116.929 7.79667 111.335 5.85C104.712 3.62725 97.761 2.53862 90.7753 2.63C74.5753 2.63 60.3953 7.63 48.2353 17.63C40.5313 24.0047 34.3533 32.0245 30.1553 41.1C25.8008 50.1141 23.5217 59.9893 23.4853 70C23.4853 88.3267 30.1086 104.137 43.3553 117.43C56.6019 130.723 72.4086 137.367 90.7753 137.36C103.739 137.554 116.445 133.737 127.155 126.43L127.465 126.22C140.345 117.34 133.725 97.03 118.075 97.03L71.9453 97.38H71.7953C71.5371 97.3671 71.2939 97.2547 71.1168 97.0664C70.9397 96.8781 70.8424 96.6285 70.8453 96.37Z" fill="white"/>
</g>
<defs>
<clipPath id="clip0_1_81">
<rect width="154.53" height="139.98" fill="white"/>
</clipPath>
</defs>
</svg>
