<svg width="448" height="140" viewBox="0 0 448 140" fill="none" xmlns="http://www.w3.org/2000/svg">
<g clip-path="url(#clip0_20_2)">
<path d="M10.8353 71.74H1.00527C0.762621 71.7424 0.527378 71.6564 0.343393 71.4982C0.159408 71.34 0.0392356 71.1203 0.00527431 70.88C-0.00785979 70.785 0.00363446 70.6882 0.0386552 70.5989C0.0736759 70.5096 0.131049 70.4307 0.205274 70.37L1.00527 70.19H10.8153V16.11C10.8153 15.4433 11.4819 15.11 12.8153 15.11H73.3953C74.0619 15.11 74.3953 15.42 74.3953 16.04C74.4014 16.1422 74.3818 16.2443 74.3381 16.337C74.2944 16.4296 74.2281 16.5097 74.1453 16.57L73.3753 16.74H12.8153V70.19H75.1753C75.8553 70.19 76.1753 70.48 76.1753 71.05C76.1797 71.1506 76.1593 71.2507 76.1156 71.3414C76.072 71.4321 76.0066 71.5107 75.9253 71.57L75.1553 71.74H12.8153V95.74C12.8153 96.35 12.4553 96.66 11.7453 96.66C11.6108 96.6688 11.4759 96.6502 11.3487 96.6056C11.2216 96.5609 11.1047 96.491 11.0053 96.4L10.8053 95.74L10.8353 71.74Z" fill="white"/>
<path d="M85.1052 71.74L71.8152 97.09C71.6986 97.1081 71.5793 97.0988 71.4669 97.0628C71.3545 97.0268 71.252 96.9651 71.1676 96.8826C71.0832 96.8001 71.0191 96.6991 70.9805 96.5876C70.9419 96.476 70.9298 96.357 70.9452 96.24V96L71.0152 95.86L83.3552 71.74H75.0052C74.5252 71.74 74.2352 71.45 74.1152 70.87C74.1015 70.7768 74.1107 70.6816 74.1421 70.5927C74.1735 70.5039 74.226 70.424 74.2952 70.36L75.0052 70.18H84.1152L112.315 15C112.485 14.53 112.725 14.28 113.025 14.25C113.267 14.2577 113.502 14.3367 113.7 14.4773C113.897 14.6178 114.049 14.8136 114.135 15.04L114.215 15.23L154.475 95.36C154.475 95.92 154.705 97.06 154.115 97.11L153.755 97L153.445 96.63L140.815 71.74H85.1052ZM85.9452 70.18H139.945L113.105 16.75L85.9452 70.18Z" fill="white"/>
<path d="M70.8453 96.37C70.8453 96.1048 70.9506 95.8504 71.1382 95.6629C71.3257 95.4754 71.5801 95.37 71.8453 95.37H74.9353L152.745 94.37C153.945 94.37 154.545 94.85 154.545 95.8C154.545 101.133 150.072 108.267 141.125 117.2C133.265 125.067 126.339 130.463 120.345 133.39C111.127 137.805 101.026 140.065 90.8053 140C72.0186 140 55.6486 133.103 41.6953 119.31C35.1281 112.836 29.9047 105.129 26.3253 96.63C22.684 88.2233 20.7988 79.1614 20.7853 70C20.7853 50.8733 27.7053 34.2867 41.5453 20.24C54.8453 6.74667 71.2653 0 90.8053 0C108.139 0 122.245 5 133.125 15L133.205 15.08L133.675 15.62L134.395 16.56L134.595 17.01C134.669 17.1586 134.7 17.3248 134.685 17.49C134.645 17.7581 134.511 18.003 134.305 18.18C134.151 18.3013 133.964 18.3745 133.769 18.3905C133.573 18.4065 133.377 18.3646 133.205 18.27L132.825 18.06L132.595 17.91L132.075 17.54C123.842 11.6933 116.929 7.79667 111.335 5.85C104.712 3.62725 97.761 2.53862 90.7753 2.63C74.5753 2.63 60.3953 7.63 48.2353 17.63C40.5313 24.0047 34.3533 32.0245 30.1553 41.1C25.8008 50.1141 23.5217 59.9893 23.4853 70C23.4853 88.3267 30.1086 104.137 43.3553 117.43C56.6019 130.723 72.4086 137.367 90.7753 137.36C103.739 137.554 116.445 133.737 127.155 126.43L127.465 126.22C140.345 117.34 133.725 97.03 118.075 97.03L71.9453 97.38H71.7953C71.5371 97.3671 71.2939 97.2547 71.1168 97.0664C70.9397 96.8781 70.8424 96.6285 70.8453 96.37Z" fill="white"/>
</g>
<path d="M170 41.8505H180.594V42.7927H171.077V58.2396H179.781V59.1861H171.077V74.9143H170V41.8505Z" fill="white"/>
<path d="M188.98 41.616H190.057L197.588 74.9143H196.453L194.207 64.8992H184.769L182.562 74.9143H181.441L188.98 41.616ZM194.017 63.957L189.51 43.7094L185.008 63.957H194.017Z" fill="white"/>
<path d="M203.004 42.7927H197.186V41.8505H209.903V42.7927H204.081V74.9143H203.004V42.7927Z" fill="white"/>
<path d="M213.319 37.7404H214.582V39.4884H213.319V37.7404ZM213.368 41.8505H214.445V74.9143H213.368V41.8505Z" fill="white"/>
<path d="M220.165 41.8505H221.242V57.7791H233.372V41.8505H234.445V74.9143H233.372V58.7128H221.242V74.9143H220.165V41.8505Z" fill="white"/>
<path d="M246.716 58.6659V58.0989C246.716 46.7621 251.704 41.5179 256.643 41.5179C258.047 41.4932 259.432 41.8365 260.651 42.5113V43.6454C259.458 42.8921 258.068 42.4825 256.643 42.4644C252.194 42.4644 247.815 47.6617 247.815 58.0989V58.6659C247.815 70.331 252.9 74.3004 257.084 74.3004C258.007 74.3313 258.925 74.1699 259.777 73.8271V59.5144H254.149V58.5721H260.801V74.441C259.638 74.9739 258.367 75.2533 257.08 75.2597C252.194 75.2597 246.716 71.0899 246.716 58.6659Z" fill="white"/>
<path d="M271.898 41.616H272.975L280.505 74.9143H279.38L277.129 64.8992H267.691L265.484 74.9143H264.363L271.898 41.616ZM276.934 63.957L272.436 43.7094L267.934 63.974L276.934 63.957Z" fill="white"/>
<path d="M284.562 41.8505H285.648V73.9806H294.745V74.9271H284.593L284.562 41.8505Z" fill="white"/>
<path d="M297.808 41.8505H298.89V73.9806H307.983V74.9271H297.808V41.8505Z" fill="white"/>
<path d="M311.059 41.8505H322.094V42.7927H312.132V57.7791H321.278V58.7256H312.132V73.9806H322.253V74.9271H311.059V41.8505Z" fill="white"/>
<path d="M326.363 41.8505H329.739C332.829 41.8505 335.266 42.7032 337.075 44.447C338.784 46.1012 339.666 48.3694 339.666 51.2686V51.3624C339.666 56.0865 337.124 59.5314 333.015 60.7124L340.205 74.9143H338.982L331.92 60.9341C331.229 61.0728 330.524 61.1358 329.819 61.1217H327.422V74.9143H326.345L326.363 41.8505ZM329.836 60.1837C335.314 60.1837 338.589 56.7729 338.589 51.3539V51.2601C338.589 45.6365 335.116 42.8012 329.691 42.8012H327.44V60.1752L329.836 60.1837Z" fill="white"/>
<path d="M348.269 60.6485L341.127 41.8505H342.302L348.808 59.331L355.31 41.8505H356.484L349.346 60.6485V74.9143H348.269V60.6485Z" fill="white"/>
<path d="M366.164 62.7759V62.4434C366.164 54.7434 369.391 49.9725 373.253 49.9725C377.115 49.9725 380.346 54.7434 380.346 62.4434V62.7759C380.346 70.4759 377.12 75.2468 373.253 75.2468C369.386 75.2468 366.164 70.4759 366.164 62.7759ZM379.269 62.7759V62.4434C379.269 55.7368 376.621 50.9318 373.253 50.9318C369.885 50.9318 367.241 55.7496 367.241 62.4434V62.7759C367.241 69.4825 369.889 74.2875 373.253 74.2875C376.616 74.2875 379.269 69.4825 379.269 62.7759Z" fill="white"/>
<path d="M385.184 51.2004H382.536V50.305H385.184V47.0008C385.184 44.9202 385.625 43.4578 386.552 42.5582C386.973 42.1853 387.466 41.8971 388.004 41.7104C388.541 41.5238 389.112 41.4423 389.682 41.471C390.043 41.4768 390.403 41.5081 390.759 41.5648V42.5113C390.402 42.4568 390.043 42.4254 389.682 42.4175C387.285 42.4175 386.212 43.7861 386.212 47.0008V50.305H390.516V51.2004H386.212V74.9143H385.184V51.2004Z" fill="white"/>
<path d="M407.528 41.616H408.605L416.135 74.9143H415.01L412.772 64.8992H403.321L401.114 74.9143H399.989L407.528 41.616ZM412.564 63.957L408.066 43.7094L403.568 63.957H412.564Z" fill="white"/>
<path d="M420.192 41.8505H423.564C426.654 41.8505 429.09 42.7032 430.9 44.447C432.613 46.1012 433.491 48.3694 433.491 51.2686V51.3624C433.491 56.0865 430.949 59.5314 426.839 60.7124L434.03 74.9314H432.807L425.767 60.9341C425.074 61.073 424.368 61.136 423.661 61.1217H421.264V74.9143H420.192V41.8505ZM423.661 60.1837C429.139 60.1837 432.414 56.7729 432.414 51.3539V51.2601C432.414 45.6365 428.945 42.8012 423.515 42.8012H421.264V60.1752L423.661 60.1837Z" fill="white"/>
<path d="M441.119 42.7927H435.283V41.8505H448V42.7927H442.196V74.9143H441.119V42.7927Z" fill="white"/>
<defs>
<clipPath id="clip0_20_2">
<rect width="154.53" height="139.98" fill="white"/>
</clipPath>
</defs>
</svg>
